<svg xmlns="http://www.w3.org/2000/svg" version="1.1" viewBox="0.00 0.00 256.00 256.00" width="256.00" height="256.00">
<g stroke-width="2.00" fill="none" stroke-linecap="butt">
<path stroke="#808082" d="&#xA;  M 126.5968 5.0020&#xA;  A 123.42 123.13 -90.8 0 0 5.2020 130.1292&#xA;  A 123.42 123.13 -90.8 0 0 130.0432 251.8180&#xA;  A 123.42 123.13 -90.8 0 0 251.4380 126.6908&#xA;  A 123.42 123.13 -90.8 0 0 126.5968 5.0020"/>
<path stroke="#808082" d="&#xA;  M 177.42 234.30&#xA;  C 213.27 217.49 237.27 184.42 243.32 145.27&#xA;  C 249.91 102.67 231.40 58.82 195.96 33.48&#xA;  C 139.24 -7.08 59.92 10.71 26.56 72.06&#xA;  C -9.37 138.13 24.38 220.01 96.75 240.77&#xA;  Q 134.90 251.71 173.60 236.07&#xA;  A 0.72 0.71 46.9 0 0 173.64 234.76&#xA;  L 170.47 233.24&#xA;  A 2.64 2.64 0.0 0 0 168.00 233.33&#xA;  L 162.80 236.33&#xA;  A 0.91 0.91 0.0 0 1 161.45 235.42&#xA;  L 162.31 229.07&#xA;  A 1.34 1.34 0.0 0 0 161.94 227.95&#xA;  L 156.97 222.99&#xA;  A 0.83 0.83 0.0 0 1 157.45 221.58&#xA;  L 163.00 220.86&#xA;  A 2.47 2.45 -80.7 0 0 164.90 219.48&#xA;  L 167.63 213.84&#xA;  A 0.86 0.86 0.0 0 1 169.15 213.78&#xA;  L 172.26 219.17&#xA;  A 1.99 1.99 0.0 0 0 173.72 220.15&#xA;  L 179.79 220.97&#xA;  A 1.00 1.00 0.0 0 1 180.36 222.66&#xA;  L 175.89 227.13&#xA;  A 0.78 0.77 64.7 0 0 175.67 227.76&#xA;  L 176.46 233.77&#xA;  A 0.68 0.68 0.0 0 0 177.42 234.30"/>
<path stroke="#808082" d="&#xA;  M 38.90 61.05&#xA;  C 44.75 62.15 44.23 66.18 42.59 71.15&#xA;  C 31.16 105.81 41.24 143.62 71.70 164.93&#xA;  Q 94.69 181.01 124.49 179.35&#xA;  A 0.57 0.56 -87.9 0 1 125.08 179.99&#xA;  L 124.86 181.64&#xA;  A 0.63 0.63 0.0 0 1 124.27 182.18&#xA;  C 78.56 185.30 37.94 151.92 35.08 105.28&#xA;  Q 33.98 87.37 39.56 71.55&#xA;  Q 40.33 69.36 40.15 67.31&#xA;  A 2.79 2.76 -89.3 0 0 37.73 64.80&#xA;  C 35.27 64.50 32.87 69.11 31.92 70.91&#xA;  Q 25.01 84.05 20.55 98.99&#xA;  C 10.86 131.47 17.93 166.62 37.09 193.89&#xA;  Q 56.02 220.85 87.65 233.34&#xA;  Q 110.16 242.23 135.25 240.87&#xA;  A 0.41 0.40 84.8 0 0 135.63 240.41&#xA;  L 134.18 229.33&#xA;  A 1.31 1.30 -27.8 0 1 134.51 228.28&#xA;  Q 135.69 227.03 137.33 226.38&#xA;  A 1.77 1.73 -42.9 0 1 138.76 226.42&#xA;  L 144.45 229.17&#xA;  A 0.60 0.60 0.0 0 0 145.30 228.55&#xA;  L 144.38 221.49&#xA;  A 1.48 1.48 0.0 0 1 144.79 220.27&#xA;  L 149.18 215.88&#xA;  A 0.59 0.59 0.0 0 0 148.84 214.88&#xA;  L 142.14 213.97&#xA;  A 1.51 1.51 0.0 0 1 141.03 213.22&#xA;  L 137.66 207.40&#xA;  A 0.45 0.45 0.0 0 0 136.86 207.43&#xA;  L 133.77 213.83&#xA;  A 0.87 0.87 0.0 0 1 132.12 213.57&#xA;  L 126.02 166.92&#xA;  A 1.68 1.67 65.6 0 1 126.57 165.44&#xA;  Q 127.44 164.66 128.82 164.18&#xA;  A 1.44 1.43 47.9 0 1 129.90 164.24&#xA;  L 134.39 166.41&#xA;  A 0.49 0.49 0.0 0 0 135.09 165.90&#xA;  L 134.41 160.68&#xA;  A 2.07 2.07 0.0 0 1 135.00 158.95&#xA;  L 137.95 156.00&#xA;  A 0.67 0.66 -63.4 0 0 137.58 154.87&#xA;  L 132.64 154.20&#xA;  A 1.23 1.22 -10.8 0 1 131.73 153.59&#xA;  L 129.19 149.19&#xA;  A 0.62 0.62 0.0 0 0 128.09 149.23&#xA;  L 125.77 154.02&#xA;  A 0.80 0.80 0.0 0 1 124.25 153.78&#xA;  Q 122.37 139.45 117.59 101.97&#xA;  Q 116.65 94.61 114.30 86.65&#xA;  A 0.38 0.38 0.0 0 0 113.91 86.39&#xA;  Q 102.47 87.24 92.30 83.79&#xA;  A 2.99 2.98 -50.7 0 0 89.85 84.04&#xA;  C 84.39 87.22 80.48 89.32 74.38 85.52&#xA;  Q 72.27 84.21 70.00 84.08&#xA;  C 66.59 83.89 65.93 80.75 67.13 78.11&#xA;  Q 69.35 73.23 75.27 67.85&#xA;  Q 78.04 65.32 84.92 62.11&#xA;  Q 87.47 60.93 94.72 56.47&#xA;  Q 104.61 50.40 108.96 43.25&#xA;  Q 109.94 41.63 113.92 40.04&#xA;  C 117.89 38.46 118.76 33.25 119.05 29.67&#xA;  C 119.24 27.46 119.92 26.07 121.63 24.86&#xA;  A 2.10 1.77 -40.6 0 1 124.07 24.84&#xA;  Q 125.99 26.58 125.52 29.51&#xA;  Q 124.48 36.03 124.27 37.95&#xA;  A 0.41 0.41 0.0 0 0 124.95 38.30&#xA;  C 127.09 36.44 127.23 30.01 127.54 26.07&#xA;  C 127.90 21.56 134.26 20.17 135.57 25.45&#xA;  Q 135.86 26.64 135.45 28.50&#xA;  C 134.28 33.75 133.04 37.96 135.99 42.47&#xA;  A 1.92 1.74 8.5 0 0 136.22 42.75&#xA;  L 143.84 49.99&#xA;  A 3.78 3.76 63.5 0 0 146.84 51.00&#xA;  Q 153.05 50.35 159.19 51.78&#xA;  A 1.44 1.44 0.0 0 1 160.28 53.46&#xA;  C 159.54 57.14 153.99 61.09 150.75 63.13&#xA;  A 7.11 7.00 20.4 0 1 148.79 64.01&#xA;  C 144.45 65.20 142.36 65.54 141.10 70.40&#xA;  A 1.85 1.80 44.2 0 0 141.13 71.44&#xA;  L 148.44 93.33&#xA;  A 1.32 1.31 48.7 0 1 148.38 94.34&#xA;  L 146.72 97.79&#xA;  A 1.14 1.14 0.0 0 1 145.85 98.41&#xA;  L 142.47 98.85&#xA;  A 0.72 0.72 0.0 0 0 142.06 100.07&#xA;  L 145.00 103.00&#xA;  A 0.78 0.78 0.0 0 1 145.22 103.67&#xA;  L 144.66 107.84&#xA;  A 0.43 0.42 -11.3 0 0 145.30 108.26&#xA;  L 148.58 106.37&#xA;  A 1.92 1.92 0.0 0 1 150.26 106.25&#xA;  Q 152.20 107.04 153.43 108.12&#xA;  A 2.36 2.23 -80.3 0 1 154.07 109.08&#xA;  Q 158.05 120.36 164.09 135.17&#xA;  Q 172.69 156.25 185.14 174.11&#xA;  Q 190.77 182.20 195.99 187.39&#xA;  A 0.56 0.56 0.0 0 1 195.52 188.34&#xA;  L 191.05 187.73&#xA;  A 2.22 2.21 -11.0 0 1 189.44 186.65&#xA;  L 185.23 179.36&#xA;  A 0.56 0.56 0.0 0 0 184.24 179.39&#xA;  L 180.59 186.97&#xA;  A 2.89 2.88 -80.7 0 1 178.37 188.57&#xA;  L 171.53 189.47&#xA;  A 0.92 0.92 0.0 0 0 171.00 191.04&#xA;  L 177.03 197.07&#xA;  A 1.83 1.81 26.9 0 1 177.54 198.59&#xA;  L 176.48 206.41&#xA;  A 0.82 0.82 0.0 0 0 177.70 207.23&#xA;  L 185.20 202.90&#xA;  A 0.92 0.91 -46.6 0 1 186.07 202.87&#xA;  L 193.69 206.55&#xA;  A 0.71 0.71 0.0 0 0 194.70 205.82&#xA;  L 193.57 197.16&#xA;  A 1.91 1.90 63.9 0 1 194.11 195.57&#xA;  L 198.69 190.99&#xA;  A 0.54 0.53 44.6 0 1 199.44 190.99&#xA;  Q 205.42 196.86 213.40 200.88&#xA;  A 0.82 0.82 0.0 0 0 214.40 200.68&#xA;  C 234.46 176.57 243.50 145.05 239.40 114.05&#xA;  C 235.12 81.72 217.32 51.98 189.30 34.46&#xA;  Q 172.87 24.19 157.77 19.77&#xA;  C 156.16 19.30 152.55 20.02 153.20 22.64&#xA;  Q 153.68 24.57 154.94 25.34&#xA;  Q 162.23 29.81 163.52 30.72&#xA;  C 189.43 48.99 203.13 78.29 199.27 109.94&#xA;  Q 196.24 134.76 178.37 155.53&#xA;  A 0.93 0.93 0.0 0 1 176.86 155.39&#xA;  L 176.31 154.44&#xA;  A 1.16 1.16 0.0 0 1 176.44 153.09&#xA;  C 194.12 132.97 201.09 106.18 194.66 80.26&#xA;  C 189.27 58.49 173.94 39.53 154.42 28.37&#xA;  C 149.82 25.73 147.46 23.30 150.64 18.55&#xA;  A 0.37 0.37 0.0 0 0 150.40 17.98&#xA;  C 108.00 9.71 64.38 25.82 38.74 60.64&#xA;  A 0.26 0.26 0.0 0 0 38.90 61.05"/>
<path stroke="#808082" d="&#xA;  M 111.96 58.91&#xA;  L 116.12 59.81&#xA;  A 0.95 0.94 -35.0 0 1 115.79 61.67&#xA;  L 115.26 61.60&#xA;  A 0.39 0.38 -15.2 0 0 114.90 62.22&#xA;  Q 115.75 63.29 117.08 63.74&#xA;  Q 117.53 63.89 117.95 63.59&#xA;  C 119.46 62.49 120.36 64.32 121.37 64.66&#xA;  A 2.39 2.38 41.7 0 0 123.13 64.56&#xA;  L 128.06 62.24&#xA;  A 0.54 0.53 55.1 0 0 128.21 61.37&#xA;  L 123.12 56.28&#xA;  A 2.66 2.65 -31.7 0 0 120.40 55.64&#xA;  L 111.94 58.46&#xA;  A 0.24 0.23 -47.9 0 0 111.96 58.91"/>
<path stroke="#808082" d="&#xA;  M 146.68 55.59&#xA;  A 0.76 0.76 0.0 0 0 146.24 55.73&#xA;  L 141.17 59.34&#xA;  A 0.76 0.76 0.0 0 0 141.61 60.72&#xA;  L 147.70 60.72&#xA;  A 0.76 0.76 0.0 0 0 148.14 60.58&#xA;  L 153.21 56.97&#xA;  A 0.76 0.76 0.0 0 0 152.77 55.59&#xA;  L 146.68 55.59"/>
<path stroke="#808082" d="&#xA;  M 82.5294 74.8053&#xA;  A 3.87 1.16 -26.3 0 0 78.5460 75.4801&#xA;  A 3.87 1.16 -26.3 0 0 75.5906 78.2347&#xA;  A 3.87 1.16 -26.3 0 0 79.5740 77.5599&#xA;  A 3.87 1.16 -26.3 0 0 82.5294 74.8053"/>
<path stroke="#808082" d="&#xA;  M 125.29 87.53&#xA;  Q 124.88 87.85 124.77 87.87&#xA;  Q 122.53 88.21 120.32 88.61&#xA;  Q 120.14 88.65 120.03 89.02&#xA;  Q 119.93 89.39 120.07 89.52&#xA;  Q 121.74 91.02 123.46 92.48&#xA;  Q 123.56 92.56 123.73 93.04&#xA;  Q 123.91 93.53 123.89 93.64&#xA;  Q 123.53 95.88 123.23 98.10&#xA;  Q 123.20 98.29 123.52 98.50&#xA;  Q 123.85 98.72 124.01 98.62&#xA;  Q 125.95 97.50 127.87 96.31&#xA;  Q 127.98 96.24 128.49 96.22&#xA;  Q 129.01 96.20 129.12 96.26&#xA;  Q 131.12 97.30 133.15 98.27&#xA;  Q 133.32 98.35 133.62 98.11&#xA;  Q 133.93 97.87 133.89 97.69&#xA;  Q 133.42 95.49 132.88 93.30&#xA;  Q 132.85 93.18 132.99 92.68&#xA;  Q 133.13 92.19 133.22 92.10&#xA;  Q 134.82 90.51 136.37 88.88&#xA;  Q 136.50 88.75 136.37 88.39&#xA;  Q 136.24 88.02 136.05 88.00&#xA;  Q 133.81 87.77 131.56 87.61&#xA;  Q 131.44 87.60 131.01 87.31&#xA;  Q 130.58 87.02 130.53 86.91&#xA;  Q 129.51 84.89 128.45 82.92&#xA;  Q 128.36 82.75 127.97 82.77&#xA;  Q 127.58 82.78 127.51 82.95&#xA;  Q 126.60 85.01 125.74 87.10&#xA;  Q 125.70 87.21 125.29 87.53"/>
<path stroke="#808082" d="&#xA;  M 134.78 122.39&#xA;  Q 134.64 122.49 134.49 122.53&#xA;  Q 130.41 123.38 126.32 124.13&#xA;  Q 125.71 124.24 125.60 124.61&#xA;  Q 125.50 124.98 125.96 125.40&#xA;  Q 129.05 128.18 132.07 131.05&#xA;  Q 132.18 131.16 132.24 131.32&#xA;  Q 132.30 131.48 132.29 131.64&#xA;  Q 131.84 135.78 131.29 139.90&#xA;  Q 131.21 140.52 131.52 140.73&#xA;  Q 131.84 140.94 132.38 140.63&#xA;  Q 135.98 138.56 139.64 136.57&#xA;  Q 139.78 136.50 139.96 136.49&#xA;  Q 140.13 136.48 140.27 136.55&#xA;  Q 144.07 138.25 147.82 140.05&#xA;  Q 148.38 140.32 148.68 140.08&#xA;  Q 148.98 139.84 148.85 139.23&#xA;  Q 148.00 135.17 147.24 131.07&#xA;  Q 147.21 130.92 147.25 130.75&#xA;  Q 147.30 130.59 147.41 130.47&#xA;  Q 150.20 127.38 153.07 124.37&#xA;  Q 153.50 123.92 153.37 123.56&#xA;  Q 153.24 123.20 152.62 123.14&#xA;  Q 148.48 122.70 144.36 122.15&#xA;  Q 144.20 122.13 144.05 122.04&#xA;  Q 143.91 121.94 143.83 121.80&#xA;  Q 141.76 118.19 139.78 114.54&#xA;  Q 139.49 113.99 139.10 114.00&#xA;  Q 138.72 114.02 138.47 114.58&#xA;  Q 136.77 118.38 134.98 122.14&#xA;  Q 134.91 122.28 134.78 122.39"/>
<path stroke="#808082" d="&#xA;  M 153.17 164.72&#xA;  Q 153.26 164.98 153.26 165.01&#xA;  Q 152.42 171.67 152.35 172.31&#xA;  A 0.62 0.61 -12.2 0 0 153.27 172.90&#xA;  L 159.18 169.49&#xA;  A 1.56 1.53 -46.9 0 1 160.62 169.43&#xA;  L 166.68 172.36&#xA;  A 0.51 0.51 0.0 0 0 167.41 171.83&#xA;  L 166.40 164.15&#xA;  A 0.64 0.63 65.0 0 1 166.58 163.64&#xA;  Q 169.49 160.76 171.01 159.14&#xA;  Q 171.17 158.97 171.21 158.66&#xA;  Q 171.24 158.38 171.15 158.14&#xA;  Q 171.06 157.90 170.86 157.71&#xA;  Q 170.63 157.50 170.40 157.47&#xA;  Q 168.19 157.21 164.11 156.89&#xA;  A 0.64 0.63 74.8 0 1 163.64 156.62&#xA;  L 159.46 150.10&#xA;  A 0.51 0.51 0.0 0 0 158.56 150.17&#xA;  L 155.82 156.31&#xA;  A 1.56 1.53 6.8 0 1 154.68 157.20&#xA;  L 147.97 158.41&#xA;  A 0.62 0.61 -28.0 0 0 147.65 159.45&#xA;  Q 148.11 159.90 153.05 164.44&#xA;  Q 153.07 164.46 153.17 164.72"/>
<path stroke="#808082" d="&#xA;  M 141.84 185.17&#xA;  Q 141.71 185.27 141.55 185.31&#xA;  Q 138.67 185.98 135.78 186.65&#xA;  Q 135.24 186.77 135.12 187.18&#xA;  Q 135.00 187.60 135.40 187.99&#xA;  Q 137.51 190.07 139.61 192.16&#xA;  Q 139.73 192.27 139.79 192.43&#xA;  Q 139.84 192.59 139.83 192.75&#xA;  Q 139.58 195.70 139.32 198.65&#xA;  Q 139.27 199.21 139.63 199.45&#xA;  Q 139.98 199.69 140.48 199.43&#xA;  Q 143.11 198.07 145.74 196.71&#xA;  Q 145.89 196.64 146.06 196.63&#xA;  Q 146.23 196.63 146.38 196.69&#xA;  Q 149.10 197.84 151.83 199.00&#xA;  Q 152.35 199.22 152.68 198.95&#xA;  Q 153.02 198.69 152.93 198.14&#xA;  Q 152.45 195.21 151.97 192.29&#xA;  Q 151.95 192.13 151.99 191.97&#xA;  Q 152.04 191.80 152.15 191.68&#xA;  Q 154.08 189.44 156.03 187.21&#xA;  Q 156.40 186.78 156.25 186.38&#xA;  Q 156.10 185.98 155.55 185.89&#xA;  Q 152.62 185.45 149.69 185.00&#xA;  Q 149.53 184.97 149.39 184.88&#xA;  Q 149.25 184.79 149.16 184.65&#xA;  Q 147.63 182.11 146.11 179.57&#xA;  Q 145.82 179.09 145.39 179.11&#xA;  Q 144.96 179.12 144.71 179.63&#xA;  Q 143.38 182.27 142.05 184.92&#xA;  Q 141.98 185.06 141.84 185.17"/>
</g>
<path fill="#010004" d="&#xA;  M 131.16 0.00&#xA;  Q 145.00 0.74 153.75 2.47&#xA;  Q 162.76 4.24 174.52 8.72&#xA;  C 206.35 20.85 231.83 46.25 245.40 76.87&#xA;  Q 254.86 98.20 256.00 123.44&#xA;  L 256.00 132.44&#xA;  Q 254.25 173.03 230.80 204.28&#xA;  Q 201.28 243.64 152.53 253.69&#xA;  C 146.17 255.00 139.06 255.47 132.34 256.00&#xA;  L 124.02 256.00&#xA;  Q 111.75 255.23 104.19 253.85&#xA;  Q 78.33 249.13 55.74 233.47&#xA;  Q 21.78 209.92 7.40 171.08&#xA;  Q 1.07 153.98 0.00 133.07&#xA;  L 0.00 122.12&#xA;  Q 3.09 72.12 37.24 37.74&#xA;  Q 72.83 1.92 124.89 0.00&#xA;  L 131.16 0.00&#xA;  Z&#xA;  M 126.5968 5.0020&#xA;  A 123.42 123.13 -90.8 0 0 5.2020 130.1292&#xA;  A 123.42 123.13 -90.8 0 0 130.0432 251.8180&#xA;  A 123.42 123.13 -90.8 0 0 251.4380 126.6908&#xA;  A 123.42 123.13 -90.8 0 0 126.5968 5.0020&#xA;  Z"/>
<path fill="#ffffff" d="&#xA;  M 126.5968 5.0020&#xA;  A 123.42 123.13 -90.8 0 1 251.4380 126.6908&#xA;  A 123.42 123.13 -90.8 0 1 130.0432 251.8180&#xA;  A 123.42 123.13 -90.8 0 1 5.2020 130.1292&#xA;  A 123.42 123.13 -90.8 0 1 126.5968 5.0020&#xA;  Z&#xA;  M 177.42 234.30&#xA;  C 213.27 217.49 237.27 184.42 243.32 145.27&#xA;  C 249.91 102.67 231.40 58.82 195.96 33.48&#xA;  C 139.24 -7.08 59.92 10.71 26.56 72.06&#xA;  C -9.37 138.13 24.38 220.01 96.75 240.77&#xA;  Q 134.90 251.71 173.60 236.07&#xA;  A 0.72 0.71 46.9 0 0 173.64 234.76&#xA;  L 170.47 233.24&#xA;  A 2.64 2.64 0.0 0 0 168.00 233.33&#xA;  L 162.80 236.33&#xA;  A 0.91 0.91 0.0 0 1 161.45 235.42&#xA;  L 162.31 229.07&#xA;  A 1.34 1.34 0.0 0 0 161.94 227.95&#xA;  L 156.97 222.99&#xA;  A 0.83 0.83 0.0 0 1 157.45 221.58&#xA;  L 163.00 220.86&#xA;  A 2.47 2.45 -80.7 0 0 164.90 219.48&#xA;  L 167.63 213.84&#xA;  A 0.86 0.86 0.0 0 1 169.15 213.78&#xA;  L 172.26 219.17&#xA;  A 1.99 1.99 0.0 0 0 173.72 220.15&#xA;  L 179.79 220.97&#xA;  A 1.00 1.00 0.0 0 1 180.36 222.66&#xA;  L 175.89 227.13&#xA;  A 0.78 0.77 64.7 0 0 175.67 227.76&#xA;  L 176.46 233.77&#xA;  A 0.68 0.68 0.0 0 0 177.42 234.30&#xA;  Z"/>
<path fill="#010004" d="&#xA;  M 177.42 234.30&#xA;  A 0.68 0.68 0.0 0 1 176.46 233.77&#xA;  L 175.67 227.76&#xA;  A 0.78 0.77 64.7 0 1 175.89 227.13&#xA;  L 180.36 222.66&#xA;  A 1.00 1.00 0.0 0 0 179.79 220.97&#xA;  L 173.72 220.15&#xA;  A 1.99 1.99 0.0 0 1 172.26 219.17&#xA;  L 169.15 213.78&#xA;  A 0.86 0.86 0.0 0 0 167.63 213.84&#xA;  L 164.90 219.48&#xA;  A 2.47 2.45 -80.7 0 1 163.00 220.86&#xA;  L 157.45 221.58&#xA;  A 0.83 0.83 0.0 0 0 156.97 222.99&#xA;  L 161.94 227.95&#xA;  A 1.34 1.34 0.0 0 1 162.31 229.07&#xA;  L 161.45 235.42&#xA;  A 0.91 0.91 0.0 0 0 162.80 236.33&#xA;  L 168.00 233.33&#xA;  A 2.64 2.64 0.0 0 1 170.47 233.24&#xA;  L 173.64 234.76&#xA;  A 0.72 0.71 46.9 0 1 173.60 236.07&#xA;  Q 134.90 251.71 96.75 240.77&#xA;  C 24.38 220.01 -9.37 138.13 26.56 72.06&#xA;  C 59.92 10.71 139.24 -7.08 195.96 33.48&#xA;  C 231.40 58.82 249.91 102.67 243.32 145.27&#xA;  C 237.27 184.42 213.27 217.49 177.42 234.30&#xA;  Z&#xA;  M 38.90 61.05&#xA;  C 44.75 62.15 44.23 66.18 42.59 71.15&#xA;  C 31.16 105.81 41.24 143.62 71.70 164.93&#xA;  Q 94.69 181.01 124.49 179.35&#xA;  A 0.57 0.56 -87.9 0 1 125.08 179.99&#xA;  L 124.86 181.64&#xA;  A 0.63 0.63 0.0 0 1 124.27 182.18&#xA;  C 78.56 185.30 37.94 151.92 35.08 105.28&#xA;  Q 33.98 87.37 39.56 71.55&#xA;  Q 40.33 69.36 40.15 67.31&#xA;  A 2.79 2.76 -89.3 0 0 37.73 64.80&#xA;  C 35.27 64.50 32.87 69.11 31.92 70.91&#xA;  Q 25.01 84.05 20.55 98.99&#xA;  C 10.86 131.47 17.93 166.62 37.09 193.89&#xA;  Q 56.02 220.85 87.65 233.34&#xA;  Q 110.16 242.23 135.25 240.87&#xA;  A 0.41 0.40 84.8 0 0 135.63 240.41&#xA;  L 134.18 229.33&#xA;  A 1.31 1.30 -27.8 0 1 134.51 228.28&#xA;  Q 135.69 227.03 137.33 226.38&#xA;  A 1.77 1.73 -42.9 0 1 138.76 226.42&#xA;  L 144.45 229.17&#xA;  A 0.60 0.60 0.0 0 0 145.30 228.55&#xA;  L 144.38 221.49&#xA;  A 1.48 1.48 0.0 0 1 144.79 220.27&#xA;  L 149.18 215.88&#xA;  A 0.59 0.59 0.0 0 0 148.84 214.88&#xA;  L 142.14 213.97&#xA;  A 1.51 1.51 0.0 0 1 141.03 213.22&#xA;  L 137.66 207.40&#xA;  A 0.45 0.45 0.0 0 0 136.86 207.43&#xA;  L 133.77 213.83&#xA;  A 0.87 0.87 0.0 0 1 132.12 213.57&#xA;  L 126.02 166.92&#xA;  A 1.68 1.67 65.6 0 1 126.57 165.44&#xA;  Q 127.44 164.66 128.82 164.18&#xA;  A 1.44 1.43 47.9 0 1 129.90 164.24&#xA;  L 134.39 166.41&#xA;  A 0.49 0.49 0.0 0 0 135.09 165.90&#xA;  L 134.41 160.68&#xA;  A 2.07 2.07 0.0 0 1 135.00 158.95&#xA;  L 137.95 156.00&#xA;  A 0.67 0.66 -63.4 0 0 137.58 154.87&#xA;  L 132.64 154.20&#xA;  A 1.23 1.22 -10.8 0 1 131.73 153.59&#xA;  L 129.19 149.19&#xA;  A 0.62 0.62 0.0 0 0 128.09 149.23&#xA;  L 125.77 154.02&#xA;  A 0.80 0.80 0.0 0 1 124.25 153.78&#xA;  Q 122.37 139.45 117.59 101.97&#xA;  Q 116.65 94.61 114.30 86.65&#xA;  A 0.38 0.38 0.0 0 0 113.91 86.39&#xA;  Q 102.47 87.24 92.30 83.79&#xA;  A 2.99 2.98 -50.7 0 0 89.85 84.04&#xA;  C 84.39 87.22 80.48 89.32 74.38 85.52&#xA;  Q 72.27 84.21 70.00 84.08&#xA;  C 66.59 83.89 65.93 80.75 67.13 78.11&#xA;  Q 69.35 73.23 75.27 67.85&#xA;  Q 78.04 65.32 84.92 62.11&#xA;  Q 87.47 60.93 94.72 56.47&#xA;  Q 104.61 50.40 108.96 43.25&#xA;  Q 109.94 41.63 113.92 40.04&#xA;  C 117.89 38.46 118.76 33.25 119.05 29.67&#xA;  C 119.24 27.46 119.92 26.07 121.63 24.86&#xA;  A 2.10 1.77 -40.6 0 1 124.07 24.84&#xA;  Q 125.99 26.58 125.52 29.51&#xA;  Q 124.48 36.03 124.27 37.95&#xA;  A 0.41 0.41 0.0 0 0 124.95 38.30&#xA;  C 127.09 36.44 127.23 30.01 127.54 26.07&#xA;  C 127.90 21.56 134.26 20.17 135.57 25.45&#xA;  Q 135.86 26.64 135.45 28.50&#xA;  C 134.28 33.75 133.04 37.96 135.99 42.47&#xA;  A 1.92 1.74 8.5 0 0 136.22 42.75&#xA;  L 143.84 49.99&#xA;  A 3.78 3.76 63.5 0 0 146.84 51.00&#xA;  Q 153.05 50.35 159.19 51.78&#xA;  A 1.44 1.44 0.0 0 1 160.28 53.46&#xA;  C 159.54 57.14 153.99 61.09 150.75 63.13&#xA;  A 7.11 7.00 20.4 0 1 148.79 64.01&#xA;  C 144.45 65.20 142.36 65.54 141.10 70.40&#xA;  A 1.85 1.80 44.2 0 0 141.13 71.44&#xA;  L 148.44 93.33&#xA;  A 1.32 1.31 48.7 0 1 148.38 94.34&#xA;  L 146.72 97.79&#xA;  A 1.14 1.14 0.0 0 1 145.85 98.41&#xA;  L 142.47 98.85&#xA;  A 0.72 0.72 0.0 0 0 142.06 100.07&#xA;  L 145.00 103.00&#xA;  A 0.78 0.78 0.0 0 1 145.22 103.67&#xA;  L 144.66 107.84&#xA;  A 0.43 0.42 -11.3 0 0 145.30 108.26&#xA;  L 148.58 106.37&#xA;  A 1.92 1.92 0.0 0 1 150.26 106.25&#xA;  Q 152.20 107.04 153.43 108.12&#xA;  A 2.36 2.23 -80.3 0 1 154.07 109.08&#xA;  Q 158.05 120.36 164.09 135.17&#xA;  Q 172.69 156.25 185.14 174.11&#xA;  Q 190.77 182.20 195.99 187.39&#xA;  A 0.56 0.56 0.0 0 1 195.52 188.34&#xA;  L 191.05 187.73&#xA;  A 2.22 2.21 -11.0 0 1 189.44 186.65&#xA;  L 185.23 179.36&#xA;  A 0.56 0.56 0.0 0 0 184.24 179.39&#xA;  L 180.59 186.97&#xA;  A 2.89 2.88 -80.7 0 1 178.37 188.57&#xA;  L 171.53 189.47&#xA;  A 0.92 0.92 0.0 0 0 171.00 191.04&#xA;  L 177.03 197.07&#xA;  A 1.83 1.81 26.9 0 1 177.54 198.59&#xA;  L 176.48 206.41&#xA;  A 0.82 0.82 0.0 0 0 177.70 207.23&#xA;  L 185.20 202.90&#xA;  A 0.92 0.91 -46.6 0 1 186.07 202.87&#xA;  L 193.69 206.55&#xA;  A 0.71 0.71 0.0 0 0 194.70 205.82&#xA;  L 193.57 197.16&#xA;  A 1.91 1.90 63.9 0 1 194.11 195.57&#xA;  L 198.69 190.99&#xA;  A 0.54 0.53 44.6 0 1 199.44 190.99&#xA;  Q 205.42 196.86 213.40 200.88&#xA;  A 0.82 0.82 0.0 0 0 214.40 200.68&#xA;  C 234.46 176.57 243.50 145.05 239.40 114.05&#xA;  C 235.12 81.72 217.32 51.98 189.30 34.46&#xA;  Q 172.87 24.19 157.77 19.77&#xA;  C 156.16 19.30 152.55 20.02 153.20 22.64&#xA;  Q 153.68 24.57 154.94 25.34&#xA;  Q 162.23 29.81 163.52 30.72&#xA;  C 189.43 48.99 203.13 78.29 199.27 109.94&#xA;  Q 196.24 134.76 178.37 155.53&#xA;  A 0.93 0.93 0.0 0 1 176.86 155.39&#xA;  L 176.31 154.44&#xA;  A 1.16 1.16 0.0 0 1 176.44 153.09&#xA;  C 194.12 132.97 201.09 106.18 194.66 80.26&#xA;  C 189.27 58.49 173.94 39.53 154.42 28.37&#xA;  C 149.82 25.73 147.46 23.30 150.64 18.55&#xA;  A 0.37 0.37 0.0 0 0 150.40 17.98&#xA;  C 108.00 9.71 64.38 25.82 38.74 60.64&#xA;  A 0.26 0.26 0.0 0 0 38.90 61.05&#xA;  Z&#xA;  M 111.96 58.91&#xA;  L 116.12 59.81&#xA;  A 0.95 0.94 -35.0 0 1 115.79 61.67&#xA;  L 115.26 61.60&#xA;  A 0.39 0.38 -15.2 0 0 114.90 62.22&#xA;  Q 115.75 63.29 117.08 63.74&#xA;  Q 117.53 63.89 117.95 63.59&#xA;  C 119.46 62.49 120.36 64.32 121.37 64.66&#xA;  A 2.39 2.38 41.7 0 0 123.13 64.56&#xA;  L 128.06 62.24&#xA;  A 0.54 0.53 55.1 0 0 128.21 61.37&#xA;  L 123.12 56.28&#xA;  A 2.66 2.65 -31.7 0 0 120.40 55.64&#xA;  L 111.94 58.46&#xA;  A 0.24 0.23 -47.9 0 0 111.96 58.91&#xA;  Z&#xA;  M 146.68 55.59&#xA;  A 0.76 0.76 0.0 0 0 146.24 55.73&#xA;  L 141.17 59.34&#xA;  A 0.76 0.76 0.0 0 0 141.61 60.72&#xA;  L 147.70 60.72&#xA;  A 0.76 0.76 0.0 0 0 148.14 60.58&#xA;  L 153.21 56.97&#xA;  A 0.76 0.76 0.0 0 0 152.77 55.59&#xA;  L 146.68 55.59&#xA;  Z&#xA;  M 82.5294 74.8053&#xA;  A 3.87 1.16 -26.3 0 0 78.5460 75.4801&#xA;  A 3.87 1.16 -26.3 0 0 75.5906 78.2347&#xA;  A 3.87 1.16 -26.3 0 0 79.5740 77.5599&#xA;  A 3.87 1.16 -26.3 0 0 82.5294 74.8053&#xA;  Z&#xA;  M 125.29 87.53&#xA;  Q 124.88 87.85 124.77 87.87&#xA;  Q 122.53 88.21 120.32 88.61&#xA;  Q 120.14 88.65 120.03 89.02&#xA;  Q 119.93 89.39 120.07 89.52&#xA;  Q 121.74 91.02 123.46 92.48&#xA;  Q 123.56 92.56 123.73 93.04&#xA;  Q 123.91 93.53 123.89 93.64&#xA;  Q 123.53 95.88 123.23 98.10&#xA;  Q 123.20 98.29 123.52 98.50&#xA;  Q 123.85 98.72 124.01 98.62&#xA;  Q 125.95 97.50 127.87 96.31&#xA;  Q 127.98 96.24 128.49 96.22&#xA;  Q 129.01 96.20 129.12 96.26&#xA;  Q 131.12 97.30 133.15 98.27&#xA;  Q 133.32 98.35 133.62 98.11&#xA;  Q 133.93 97.87 133.89 97.69&#xA;  Q 133.42 95.49 132.88 93.30&#xA;  Q 132.85 93.18 132.99 92.68&#xA;  Q 133.13 92.19 133.22 92.10&#xA;  Q 134.82 90.51 136.37 88.88&#xA;  Q 136.50 88.75 136.37 88.39&#xA;  Q 136.24 88.02 136.05 88.00&#xA;  Q 133.81 87.77 131.56 87.61&#xA;  Q 131.44 87.60 131.01 87.31&#xA;  Q 130.58 87.02 130.53 86.91&#xA;  Q 129.51 84.89 128.45 82.92&#xA;  Q 128.36 82.75 127.97 82.77&#xA;  Q 127.58 82.78 127.51 82.95&#xA;  Q 126.60 85.01 125.74 87.10&#xA;  Q 125.70 87.21 125.29 87.53&#xA;  Z&#xA;  M 134.78 122.39&#xA;  Q 134.64 122.49 134.49 122.53&#xA;  Q 130.41 123.38 126.32 124.13&#xA;  Q 125.71 124.24 125.60 124.61&#xA;  Q 125.50 124.98 125.96 125.40&#xA;  Q 129.05 128.18 132.07 131.05&#xA;  Q 132.18 131.16 132.24 131.32&#xA;  Q 132.30 131.48 132.29 131.64&#xA;  Q 131.84 135.78 131.29 139.90&#xA;  Q 131.21 140.52 131.52 140.73&#xA;  Q 131.84 140.94 132.38 140.63&#xA;  Q 135.98 138.56 139.64 136.57&#xA;  Q 139.78 136.50 139.96 136.49&#xA;  Q 140.13 136.48 140.27 136.55&#xA;  Q 144.07 138.25 147.82 140.05&#xA;  Q 148.38 140.32 148.68 140.08&#xA;  Q 148.98 139.84 148.85 139.23&#xA;  Q 148.00 135.17 147.24 131.07&#xA;  Q 147.21 130.92 147.25 130.75&#xA;  Q 147.30 130.59 147.41 130.47&#xA;  Q 150.20 127.38 153.07 124.37&#xA;  Q 153.50 123.92 153.37 123.56&#xA;  Q 153.24 123.20 152.62 123.14&#xA;  Q 148.48 122.70 144.36 122.15&#xA;  Q 144.20 122.13 144.05 122.04&#xA;  Q 143.91 121.94 143.83 121.80&#xA;  Q 141.76 118.19 139.78 114.54&#xA;  Q 139.49 113.99 139.10 114.00&#xA;  Q 138.72 114.02 138.47 114.58&#xA;  Q 136.77 118.38 134.98 122.14&#xA;  Q 134.91 122.28 134.78 122.39&#xA;  Z&#xA;  M 153.17 164.72&#xA;  Q 153.26 164.98 153.26 165.01&#xA;  Q 152.42 171.67 152.35 172.31&#xA;  A 0.62 0.61 -12.2 0 0 153.27 172.90&#xA;  L 159.18 169.49&#xA;  A 1.56 1.53 -46.9 0 1 160.62 169.43&#xA;  L 166.68 172.36&#xA;  A 0.51 0.51 0.0 0 0 167.41 171.83&#xA;  L 166.40 164.15&#xA;  A 0.64 0.63 65.0 0 1 166.58 163.64&#xA;  Q 169.49 160.76 171.01 159.14&#xA;  Q 171.17 158.97 171.21 158.66&#xA;  Q 171.24 158.38 171.15 158.14&#xA;  Q 171.06 157.90 170.86 157.71&#xA;  Q 170.63 157.50 170.40 157.47&#xA;  Q 168.19 157.21 164.11 156.89&#xA;  A 0.64 0.63 74.8 0 1 163.64 156.62&#xA;  L 159.46 150.10&#xA;  A 0.51 0.51 0.0 0 0 158.56 150.17&#xA;  L 155.82 156.31&#xA;  A 1.56 1.53 6.8 0 1 154.68 157.20&#xA;  L 147.97 158.41&#xA;  A 0.62 0.61 -28.0 0 0 147.65 159.45&#xA;  Q 148.11 159.90 153.05 164.44&#xA;  Q 153.07 164.46 153.17 164.72&#xA;  Z&#xA;  M 141.84 185.17&#xA;  Q 141.71 185.27 141.55 185.31&#xA;  Q 138.67 185.98 135.78 186.65&#xA;  Q 135.24 186.77 135.12 187.18&#xA;  Q 135.00 187.60 135.40 187.99&#xA;  Q 137.51 190.07 139.61 192.16&#xA;  Q 139.73 192.27 139.79 192.43&#xA;  Q 139.84 192.59 139.83 192.75&#xA;  Q 139.58 195.70 139.32 198.65&#xA;  Q 139.27 199.21 139.63 199.45&#xA;  Q 139.98 199.69 140.48 199.43&#xA;  Q 143.11 198.07 145.74 196.71&#xA;  Q 145.89 196.64 146.06 196.63&#xA;  Q 146.23 196.63 146.38 196.69&#xA;  Q 149.10 197.84 151.83 199.00&#xA;  Q 152.35 199.22 152.68 198.95&#xA;  Q 153.02 198.69 152.93 198.14&#xA;  Q 152.45 195.21 151.97 192.29&#xA;  Q 151.95 192.13 151.99 191.97&#xA;  Q 152.04 191.80 152.15 191.68&#xA;  Q 154.08 189.44 156.03 187.21&#xA;  Q 156.40 186.78 156.25 186.38&#xA;  Q 156.10 185.98 155.55 185.89&#xA;  Q 152.62 185.45 149.69 185.00&#xA;  Q 149.53 184.97 149.39 184.88&#xA;  Q 149.25 184.79 149.16 184.65&#xA;  Q 147.63 182.11 146.11 179.57&#xA;  Q 145.82 179.09 145.39 179.11&#xA;  Q 144.96 179.12 144.71 179.63&#xA;  Q 143.38 182.27 142.05 184.92&#xA;  Q 141.98 185.06 141.84 185.17&#xA;  Z"/>
<path fill="#ffffff" d="&#xA;  M 38.90 61.05&#xA;  A 0.26 0.26 0.0 0 1 38.74 60.64&#xA;  C 64.38 25.82 108.00 9.71 150.40 17.98&#xA;  A 0.37 0.37 0.0 0 1 150.64 18.55&#xA;  C 147.46 23.30 149.82 25.73 154.42 28.37&#xA;  C 173.94 39.53 189.27 58.49 194.66 80.26&#xA;  C 201.09 106.18 194.12 132.97 176.44 153.09&#xA;  A 1.16 1.16 0.0 0 0 176.31 154.44&#xA;  L 176.86 155.39&#xA;  A 0.93 0.93 0.0 0 0 178.37 155.53&#xA;  Q 196.24 134.76 199.27 109.94&#xA;  C 203.13 78.29 189.43 48.99 163.52 30.72&#xA;  Q 162.23 29.81 154.94 25.34&#xA;  Q 153.68 24.57 153.20 22.64&#xA;  C 152.55 20.02 156.16 19.30 157.77 19.77&#xA;  Q 172.87 24.19 189.30 34.46&#xA;  C 217.32 51.98 235.12 81.72 239.40 114.05&#xA;  C 243.50 145.05 234.46 176.57 214.40 200.68&#xA;  A 0.82 0.82 0.0 0 1 213.40 200.88&#xA;  Q 205.42 196.86 199.44 190.99&#xA;  A 0.54 0.53 44.6 0 0 198.69 190.99&#xA;  L 194.11 195.57&#xA;  A 1.91 1.90 63.9 0 0 193.57 197.16&#xA;  L 194.70 205.82&#xA;  A 0.71 0.71 0.0 0 1 193.69 206.55&#xA;  L 186.07 202.87&#xA;  A 0.92 0.91 -46.6 0 0 185.20 202.90&#xA;  L 177.70 207.23&#xA;  A 0.82 0.82 0.0 0 1 176.48 206.41&#xA;  L 177.54 198.59&#xA;  A 1.83 1.81 26.9 0 0 177.03 197.07&#xA;  L 171.00 191.04&#xA;  A 0.92 0.92 0.0 0 1 171.53 189.47&#xA;  L 178.37 188.57&#xA;  A 2.89 2.88 -80.7 0 0 180.59 186.97&#xA;  L 184.24 179.39&#xA;  A 0.56 0.56 0.0 0 1 185.23 179.36&#xA;  L 189.44 186.65&#xA;  A 2.22 2.21 -11.0 0 0 191.05 187.73&#xA;  L 195.52 188.34&#xA;  A 0.56 0.56 0.0 0 0 195.99 187.39&#xA;  Q 190.77 182.20 185.14 174.11&#xA;  Q 172.69 156.25 164.09 135.17&#xA;  Q 158.05 120.36 154.07 109.08&#xA;  A 2.36 2.23 -80.3 0 0 153.43 108.12&#xA;  Q 152.20 107.04 150.26 106.25&#xA;  A 1.92 1.92 0.0 0 0 148.58 106.37&#xA;  L 145.30 108.26&#xA;  A 0.43 0.42 -11.3 0 1 144.66 107.84&#xA;  L 145.22 103.67&#xA;  A 0.78 0.78 0.0 0 0 145.00 103.00&#xA;  L 142.06 100.07&#xA;  A 0.72 0.72 0.0 0 1 142.47 98.85&#xA;  L 145.85 98.41&#xA;  A 1.14 1.14 0.0 0 0 146.72 97.79&#xA;  L 148.38 94.34&#xA;  A 1.32 1.31 48.7 0 0 148.44 93.33&#xA;  L 141.13 71.44&#xA;  A 1.85 1.80 44.2 0 1 141.10 70.40&#xA;  C 142.36 65.54 144.45 65.20 148.79 64.01&#xA;  A 7.11 7.00 20.4 0 0 150.75 63.13&#xA;  C 153.99 61.09 159.54 57.14 160.28 53.46&#xA;  A 1.44 1.44 0.0 0 0 159.19 51.78&#xA;  Q 153.05 50.35 146.84 51.00&#xA;  A 3.78 3.76 63.5 0 1 143.84 49.99&#xA;  L 136.22 42.75&#xA;  A 1.92 1.74 8.5 0 1 135.99 42.47&#xA;  C 133.04 37.96 134.28 33.75 135.45 28.50&#xA;  Q 135.86 26.64 135.57 25.45&#xA;  C 134.26 20.17 127.90 21.56 127.54 26.07&#xA;  C 127.23 30.01 127.09 36.44 124.95 38.30&#xA;  A 0.41 0.41 0.0 0 1 124.27 37.95&#xA;  Q 124.48 36.03 125.52 29.51&#xA;  Q 125.99 26.58 124.07 24.84&#xA;  A 2.10 1.77 -40.6 0 0 121.63 24.86&#xA;  C 119.92 26.07 119.24 27.46 119.05 29.67&#xA;  C 118.76 33.25 117.89 38.46 113.92 40.04&#xA;  Q 109.94 41.63 108.96 43.25&#xA;  Q 104.61 50.40 94.72 56.47&#xA;  Q 87.47 60.93 84.92 62.11&#xA;  Q 78.04 65.32 75.27 67.85&#xA;  Q 69.35 73.23 67.13 78.11&#xA;  C 65.93 80.75 66.59 83.89 70.00 84.08&#xA;  Q 72.27 84.21 74.38 85.52&#xA;  C 80.48 89.32 84.39 87.22 89.85 84.04&#xA;  A 2.99 2.98 -50.7 0 1 92.30 83.79&#xA;  Q 102.47 87.24 113.91 86.39&#xA;  A 0.38 0.38 0.0 0 1 114.30 86.65&#xA;  Q 116.65 94.61 117.59 101.97&#xA;  Q 122.37 139.45 124.25 153.78&#xA;  A 0.80 0.80 0.0 0 0 125.77 154.02&#xA;  L 128.09 149.23&#xA;  A 0.62 0.62 0.0 0 1 129.19 149.19&#xA;  L 131.73 153.59&#xA;  A 1.23 1.22 -10.8 0 0 132.64 154.20&#xA;  L 137.58 154.87&#xA;  A 0.67 0.66 -63.4 0 1 137.95 156.00&#xA;  L 135.00 158.95&#xA;  A 2.07 2.07 0.0 0 0 134.41 160.68&#xA;  L 135.09 165.90&#xA;  A 0.49 0.49 0.0 0 1 134.39 166.41&#xA;  L 129.90 164.24&#xA;  A 1.44 1.43 47.9 0 0 128.82 164.18&#xA;  Q 127.44 164.66 126.57 165.44&#xA;  A 1.68 1.67 65.6 0 0 126.02 166.92&#xA;  L 132.12 213.57&#xA;  A 0.87 0.87 0.0 0 0 133.77 213.83&#xA;  L 136.86 207.43&#xA;  A 0.45 0.45 0.0 0 1 137.66 207.40&#xA;  L 141.03 213.22&#xA;  A 1.51 1.51 0.0 0 0 142.14 213.97&#xA;  L 148.84 214.88&#xA;  A 0.59 0.59 0.0 0 1 149.18 215.88&#xA;  L 144.79 220.27&#xA;  A 1.48 1.48 0.0 0 0 144.38 221.49&#xA;  L 145.30 228.55&#xA;  A 0.60 0.60 0.0 0 1 144.45 229.17&#xA;  L 138.76 226.42&#xA;  A 1.77 1.73 -42.9 0 0 137.33 226.38&#xA;  Q 135.69 227.03 134.51 228.28&#xA;  A 1.31 1.30 -27.8 0 0 134.18 229.33&#xA;  L 135.63 240.41&#xA;  A 0.41 0.40 84.8 0 1 135.25 240.87&#xA;  Q 110.16 242.23 87.65 233.34&#xA;  Q 56.02 220.85 37.09 193.89&#xA;  C 17.93 166.62 10.86 131.47 20.55 98.99&#xA;  Q 25.01 84.05 31.92 70.91&#xA;  C 32.87 69.11 35.27 64.50 37.73 64.80&#xA;  A 2.79 2.76 -89.3 0 1 40.15 67.31&#xA;  Q 40.33 69.36 39.56 71.55&#xA;  Q 33.98 87.37 35.08 105.28&#xA;  C 37.94 151.92 78.56 185.30 124.27 182.18&#xA;  A 0.63 0.63 0.0 0 0 124.86 181.64&#xA;  L 125.08 179.99&#xA;  A 0.57 0.56 -87.9 0 0 124.49 179.35&#xA;  Q 94.69 181.01 71.70 164.93&#xA;  C 41.24 143.62 31.16 105.81 42.59 71.15&#xA;  C 44.23 66.18 44.75 62.15 38.90 61.05&#xA;  Z"/>
<path fill="#ffffff" d="&#xA;  M 111.94 58.46&#xA;  L 120.40 55.64&#xA;  A 2.66 2.65 -31.7 0 1 123.12 56.28&#xA;  L 128.21 61.37&#xA;  A 0.54 0.53 55.1 0 1 128.06 62.24&#xA;  L 123.13 64.56&#xA;  A 2.39 2.38 41.7 0 1 121.37 64.66&#xA;  C 120.36 64.32 119.46 62.49 117.95 63.59&#xA;  Q 117.53 63.89 117.08 63.74&#xA;  Q 115.75 63.29 114.90 62.22&#xA;  A 0.39 0.38 -15.2 0 1 115.26 61.60&#xA;  L 115.79 61.67&#xA;  A 0.95 0.94 -35.0 0 0 116.12 59.81&#xA;  L 111.96 58.91&#xA;  A 0.24 0.23 -47.9 0 1 111.94 58.46&#xA;  Z"/>
<path fill="#ffffff" d="&#xA;  M 146.68 55.59&#xA;  L 152.77 55.59&#xA;  A 0.76 0.76 0.0 0 1 153.21 56.97&#xA;  L 148.14 60.58&#xA;  A 0.76 0.76 0.0 0 1 147.70 60.72&#xA;  L 141.61 60.72&#xA;  A 0.76 0.76 0.0 0 1 141.17 59.34&#xA;  L 146.24 55.73&#xA;  A 0.76 0.76 0.0 0 1 146.68 55.59&#xA;  Z"/>
<ellipse fill="#ffffff" cx="0.00" cy="0.00" transform="translate(79.06,76.52) rotate(-26.3)" rx="3.87" ry="1.16"/>
<path fill="#ffffff" d="&#xA;  M 127.97 82.77&#xA;  Q 128.36 82.75 128.45 82.92&#xA;  Q 129.51 84.89 130.53 86.91&#xA;  Q 130.58 87.02 131.01 87.31&#xA;  Q 131.44 87.60 131.56 87.61&#xA;  Q 133.81 87.77 136.05 88.00&#xA;  Q 136.24 88.02 136.37 88.39&#xA;  Q 136.50 88.75 136.37 88.88&#xA;  Q 134.82 90.51 133.22 92.10&#xA;  Q 133.13 92.19 132.99 92.68&#xA;  Q 132.85 93.18 132.88 93.30&#xA;  Q 133.42 95.49 133.89 97.69&#xA;  Q 133.93 97.87 133.62 98.11&#xA;  Q 133.32 98.35 133.15 98.27&#xA;  Q 131.12 97.30 129.12 96.26&#xA;  Q 129.01 96.20 128.49 96.22&#xA;  Q 127.98 96.24 127.87 96.31&#xA;  Q 125.95 97.50 124.01 98.62&#xA;  Q 123.85 98.72 123.52 98.50&#xA;  Q 123.20 98.29 123.23 98.10&#xA;  Q 123.53 95.88 123.89 93.64&#xA;  Q 123.91 93.53 123.73 93.04&#xA;  Q 123.56 92.56 123.46 92.48&#xA;  Q 121.74 91.02 120.07 89.52&#xA;  Q 119.93 89.39 120.03 89.02&#xA;  Q 120.14 88.65 120.32 88.61&#xA;  Q 122.53 88.21 124.77 87.87&#xA;  Q 124.88 87.85 125.29 87.53&#xA;  Q 125.70 87.21 125.74 87.10&#xA;  Q 126.60 85.01 127.51 82.95&#xA;  Q 127.58 82.78 127.97 82.77&#xA;  Z"/>
<path fill="#ffffff" d="&#xA;  M 139.10 114.00&#xA;  Q 139.49 113.99 139.78 114.54&#xA;  Q 141.76 118.19 143.83 121.80&#xA;  Q 143.91 121.94 144.05 122.04&#xA;  Q 144.20 122.13 144.36 122.15&#xA;  Q 148.48 122.70 152.62 123.14&#xA;  Q 153.24 123.20 153.37 123.56&#xA;  Q 153.50 123.92 153.07 124.37&#xA;  Q 150.20 127.38 147.41 130.47&#xA;  Q 147.30 130.59 147.25 130.75&#xA;  Q 147.21 130.92 147.24 131.07&#xA;  Q 148.00 135.17 148.85 139.23&#xA;  Q 148.98 139.84 148.68 140.08&#xA;  Q 148.38 140.32 147.82 140.05&#xA;  Q 144.07 138.25 140.27 136.55&#xA;  Q 140.13 136.48 139.96 136.49&#xA;  Q 139.78 136.50 139.64 136.57&#xA;  Q 135.98 138.56 132.38 140.63&#xA;  Q 131.84 140.94 131.52 140.73&#xA;  Q 131.21 140.52 131.29 139.90&#xA;  Q 131.84 135.78 132.29 131.64&#xA;  Q 132.30 131.48 132.24 131.32&#xA;  Q 132.18 131.16 132.07 131.05&#xA;  Q 129.05 128.18 125.96 125.40&#xA;  Q 125.50 124.98 125.60 124.61&#xA;  Q 125.71 124.24 126.32 124.13&#xA;  Q 130.41 123.38 134.49 122.53&#xA;  Q 134.64 122.49 134.78 122.39&#xA;  Q 134.91 122.28 134.98 122.14&#xA;  Q 136.77 118.38 138.47 114.58&#xA;  Q 138.72 114.02 139.10 114.00&#xA;  Z"/>
<path fill="#ffffff" d="&#xA;  M 171.15 158.14&#xA;  Q 171.24 158.38 171.21 158.66&#xA;  Q 171.17 158.97 171.01 159.14&#xA;  Q 169.49 160.76 166.58 163.64&#xA;  A 0.64 0.63 65.0 0 0 166.40 164.15&#xA;  L 167.41 171.83&#xA;  A 0.51 0.51 0.0 0 1 166.68 172.36&#xA;  L 160.62 169.43&#xA;  A 1.56 1.53 -46.9 0 0 159.18 169.49&#xA;  L 153.27 172.90&#xA;  A 0.62 0.61 -12.2 0 1 152.35 172.31&#xA;  Q 152.42 171.67 153.26 165.01&#xA;  Q 153.26 164.98 153.17 164.72&#xA;  Q 153.07 164.46 153.05 164.44&#xA;  Q 148.11 159.90 147.65 159.45&#xA;  A 0.62 0.61 -28.0 0 1 147.97 158.41&#xA;  L 154.68 157.20&#xA;  A 1.56 1.53 6.8 0 0 155.82 156.31&#xA;  L 158.56 150.17&#xA;  A 0.51 0.51 0.0 0 1 159.46 150.10&#xA;  L 163.64 156.62&#xA;  A 0.64 0.63 74.8 0 0 164.11 156.89&#xA;  Q 168.19 157.21 170.40 157.47&#xA;  Q 170.63 157.50 170.86 157.71&#xA;  Q 171.06 157.90 171.15 158.14&#xA;  Z"/>
<path fill="#ffffff" d="&#xA;  M 145.39 179.11&#xA;  Q 145.82 179.09 146.11 179.57&#xA;  Q 147.63 182.11 149.16 184.65&#xA;  Q 149.25 184.79 149.39 184.88&#xA;  Q 149.53 184.97 149.69 185.00&#xA;  Q 152.62 185.45 155.55 185.89&#xA;  Q 156.10 185.98 156.25 186.38&#xA;  Q 156.40 186.78 156.03 187.21&#xA;  Q 154.08 189.44 152.15 191.68&#xA;  Q 152.04 191.80 151.99 191.97&#xA;  Q 151.95 192.13 151.97 192.29&#xA;  Q 152.45 195.21 152.93 198.14&#xA;  Q 153.02 198.69 152.68 198.95&#xA;  Q 152.35 199.22 151.83 199.00&#xA;  Q 149.10 197.84 146.38 196.69&#xA;  Q 146.23 196.63 146.06 196.63&#xA;  Q 145.89 196.64 145.74 196.71&#xA;  Q 143.11 198.07 140.48 199.43&#xA;  Q 139.98 199.69 139.63 199.45&#xA;  Q 139.27 199.21 139.32 198.65&#xA;  Q 139.58 195.70 139.83 192.75&#xA;  Q 139.84 192.59 139.79 192.43&#xA;  Q 139.73 192.27 139.61 192.16&#xA;  Q 137.51 190.07 135.40 187.99&#xA;  Q 135.00 187.60 135.12 187.18&#xA;  Q 135.24 186.77 135.78 186.65&#xA;  Q 138.67 185.98 141.55 185.31&#xA;  Q 141.71 185.27 141.84 185.17&#xA;  Q 141.98 185.06 142.05 184.92&#xA;  Q 143.38 182.27 144.71 179.63&#xA;  Q 144.96 179.12 145.39 179.11&#xA;  Z"/>
</svg>